<svg width="48" height="51" viewBox="0 0 48 51" fill="none" xmlns="http://www.w3.org/2000/svg">
<path d="M24.2399 26.9455C24.0999 26.9249 23.9199 26.9249 23.7599 26.9455C20.2399 26.822 17.4399 23.8584 17.4399 20.2157C17.4399 16.4906 20.3599 13.4653 23.9999 13.4653C27.6199 13.4653 30.5599 16.4906 30.5599 20.2157C30.5399 23.8584 27.7599 26.822 24.2399 26.9455Z" stroke="white" stroke-width="1.5" stroke-linecap="round" stroke-linejoin="round"/>
<path d="M37.48 40.5286C33.92 43.8832 29.2 45.9207 24 45.9207C18.8 45.9207 14.08 43.8832 10.52 40.5286C10.72 38.5941 11.92 36.7006 14.06 35.2189C19.54 31.4732 28.5 31.4732 33.94 35.2189C36.08 36.7006 37.28 38.5941 37.48 40.5286Z" stroke="white" stroke-width="1.5" stroke-linecap="round" stroke-linejoin="round"/>
<path d="M24 45.9207C35.0457 45.9207 44 36.7065 44 25.3402C44 13.974 35.0457 4.75978 24 4.75978C12.9543 4.75978 4 13.974 4 25.3402C4 36.7065 12.9543 45.9207 24 45.9207Z" stroke="white" stroke-width="1.5" stroke-linecap="round" stroke-linejoin="round"/>
</svg>
